<svg xmlns="http://www.w3.org/2000/svg" xmlns:xlink="http://www.w3.org/1999/xlink" width="4.8457in" height="0.9553in" viewBox="0 0 348.8898 68.7839"><defs><linearGradient id="a" x1="31.8792" x2="31.8792" y2="68.7839" gradientUnits="userSpaceOnUse"><stop offset="0" stop-color="#009192"/><stop offset="1" stop-color="#0084b4"/></linearGradient><linearGradient id="b" x1="265.8818" y1="33.7058" x2="265.8818" y2="61.8509" xlink:href="#a"/><linearGradient id="c" x1="296.418" y1="30.7307" x2="296.418" y2="64.8533" xlink:href="#a"/><linearGradient id="d" x1="330.8395" y1="30.3349" x2="330.8395" y2="64.8037" xlink:href="#a"/></defs><path d="M53.2962,0a6.8344,6.8344,0,0,0-6.3533,4.3184L29.2118,44.0337l-11.7734-25.31a8.4017,8.4017,0,0,0-7.8131-5.3106H0L23.85,68.7839H34.5748L63.7585,0Z" style="fill:url(#a)"/><path d="M53.8809,47.4662c0-9.5832,6.8452-17.3184,16.2918-17.3184,9.9942,0,15.881,7.8039,15.881,17.73v1.3H59.3571C59.7677,55.407,64.08,60.6092,71.2,60.6092a14.3886,14.3886,0,0,0,10.2678-4.2436L83.9317,59.72a18.2344,18.2344,0,0,1-13.143,5.1335C60.9314,64.8533,53.8809,57.8031,53.8809,47.4662ZM70.1043,34.3919c-7.0508,0-10.5419,5.9553-10.8156,10.9525h21.7C80.92,40.4841,77.6342,34.3919,70.1043,34.3919Z" style="fill:#535453"/><path d="M116.7183,64.0321V42.4009c0-5.8872-3.012-7.6665-7.4614-7.6665a12.88,12.88,0,0,0-9.7888,5.1335V64.0321H94.3343V30.9691h5.1338v4.7921a16.181,16.181,0,0,1,11.8424-5.6134c6.8452,0,10.4734,3.4911,10.4734,10.6788V64.0321Z" style="fill:#535453"/><path d="M133.1449,57.1182V35.4869h-5.4762V30.9691h5.4762v-9.036h5.2023v9.036h6.7083v4.5178h-6.7083V56.0232c0,2.4642,1.0952,4.2441,3.2857,4.2441a4.8619,4.8619,0,0,0,3.4913-1.4374l1.5059,3.9016a8.3288,8.3288,0,0,1-6.0924,2.1218C135.6092,64.8533,133.1449,62.0472,133.1449,57.1182Z" style="fill:#535453"/><path d="M174.5578,64.0321V59.3774a16.174,16.174,0,0,1-11.7743,5.4759c-6.9137,0-10.5416-3.4223-10.5416-10.5413V30.9691h5.1338V52.7372c0,5.8184,2.9436,7.53,7.4614,7.53a12.621,12.621,0,0,0,9.7207-4.9972V30.9691h5.1335v33.063Z" style="fill:#535453"/><path d="M189.9578,64.0321V30.9691h5.1341V36.24c2.6693-3.4224,6.5028-6.0235,11.0207-6.0235v5.27a17.0328,17.0328,0,0,0-1.985-.1368,12.1062,12.1062,0,0,0-9.0357,5.2709V64.0321Z" style="fill:#535453"/><path d="M210.6288,47.4662c0-9.5832,6.8453-17.3184,16.2916-17.3184,9.9944,0,15.8815,7.8039,15.8815,17.73v1.3H216.1048c.4112,6.2291,4.7235,11.4313,11.8425,11.4313a14.3893,14.3893,0,0,0,10.2681-4.2436L240.68,59.72a18.2337,18.2337,0,0,1-13.143,5.1335C217.68,64.8533,210.6288,57.8031,210.6288,47.4662Zm16.2235-13.0743c-7.0508,0-10.5419,5.9553-10.8156,10.9525h21.6994C237.6679,40.4841,234.3819,34.3919,226.8523,34.3919Z" style="fill:#535453"/><path d="M251.8093,56.99l7.3684-3.8082a6.4207,6.4207,0,0,0,6.1815,4.0555c3.4123,0,5.4892-1.78,5.4892-4.6981,0-3.0165-2.0769-4.6981-5.8845-4.6981a14.3137,14.3137,0,0,0-4.9454.7912c-.445.1485-.8408-.0492-.5443-.4947l7.0222-9.8411H254.9246V30.7307h24.7761c.2474,0,.3462.1485.1485.3958l-8.4074,11.2749c4.4017.8408,8.5063,4.0555,8.5063,10.5334,0,7.072-5.44,11.9185-13.9954,11.9185C258.93,64.8533,253.985,61.3422,251.8093,56.99Z" style="fill:url(#b)"/><path d="M310.3143,52.391c0,7.072-5.9341,12.4623-13.9954,12.4623-7.9122,0-13.7972-5.39-13.7972-12.2646a15.5747,15.5747,0,0,1,3.1153-9.2968L294.44,30.7307h9.2973L296.5663,40.918C305.1216,40.176,310.3143,46.16,310.3143,52.391Zm-8.9511,0a5.0939,5.0939,0,1,0-5.0934,5.1431A4.955,4.955,0,0,0,301.3632,52.391Z" style="fill:url(#c)"/><path d="M312.7891,47.5444c0-10.1375,8.3578-17.21,18.05-17.21s18.05,7.072,18.05,17.21-8.3577,17.2593-18.05,17.2593S312.7891,57.6826,312.7891,47.5444Zm26.9027,0c0-5.291-3.2146-9.3956-8.8523-9.3956s-8.8518,4.1046-8.8518,9.3956S325.2018,56.99,330.84,56.99,339.6918,52.836,339.6918,47.5444Z" style="fill:url(#d)"/></svg>